<svg xmlns="http://www.w3.org/2000/svg" viewBox="0 0 1024 1024" width="1024" height="1024" role="img" aria-label="SlicerX"><defs><linearGradient id="p" x1="0" y1="0" x2="0" y2="1"><stop offset="0" stop-color="#2b2d3c"/><stop offset="1" stop-color="#15161d"/></linearGradient><filter id="s" x="-20%" y="-20%" width="140%" height="150%"><feGaussianBlur in="SourceAlpha" stdDeviation="14"/><feOffset dy="14"/><feComponentTransfer><feFuncA type="linear" slope="0.5"/></feComponentTransfer></filter><clipPath id="pc"><path d="M924 512L923.65 650.4L922.59 694.46L920.81 726.28L918.33 751.94L915.11 773.66L911.16 792.56L906.45 809.29L900.96 824.24L894.68 837.68L887.56 849.81L879.58 860.77L870.67 870.67L860.77 879.58L849.81 887.56L837.68 894.68L824.24 900.96L809.29 906.45L792.56 911.16L773.66 915.11L751.94 918.33L726.28 920.81L694.46 922.59L650.4 923.65L512 924L373.6 923.65L329.54 922.59L297.72 920.81L272.06 918.33L250.34 915.11L231.44 911.16L214.71 906.45L199.76 900.96L186.32 894.68L174.19 887.56L163.23 879.58L153.33 870.67L144.42 860.77L136.44 849.81L129.32 837.68L123.04 824.24L117.55 809.29L112.84 792.56L108.89 773.66L105.67 751.94L103.19 726.28L101.41 694.46L100.35 650.4L100 512L100.35 373.6L101.41 329.54L103.19 297.72L105.67 272.06L108.89 250.34L112.84 231.44L117.55 214.71L123.04 199.76L129.32 186.32L136.44 174.19L144.42 163.23L153.33 153.33L163.23 144.42L174.19 136.44L186.32 129.32L199.76 123.04L214.71 117.55L231.44 112.84L250.34 108.89L272.06 105.67L297.72 103.19L329.54 101.41L373.6 100.35L512 100L650.4 100.35L694.46 101.41L726.28 103.19L751.94 105.67L773.66 108.89L792.56 112.84L809.29 117.55L824.24 123.04L837.68 129.32L849.81 136.44L860.77 144.42L870.67 153.33L879.58 163.23L887.56 174.19L894.68 186.32L900.96 199.76L906.45 214.71L911.16 231.44L915.11 250.34L918.33 272.06L920.81 297.72L922.59 329.54L923.65 373.6Z"/></clipPath><filter id="bi" x="-40%" y="-40%" width="180%" height="180%"><feGaussianBlur stdDeviation="1.2"/></filter><mask id="mi" maskUnits="userSpaceOnUse" x="-16" y="-16" width="64" height="64"><rect x="-16" y="-16" width="64" height="64" fill="#fff"/><path d="M4.5 4L14.1 4L16 7.4L17.9 4L27.5 4L20.8 16L27.5 28L17.9 28L16 24.6L14.1 28L4.5 28L11.2 16z" fill="#000"/></mask></defs><path d="M924 512L923.65 650.4L922.59 694.46L920.81 726.28L918.33 751.94L915.11 773.66L911.16 792.56L906.45 809.29L900.96 824.24L894.68 837.68L887.56 849.81L879.58 860.77L870.67 870.67L860.77 879.58L849.81 887.56L837.68 894.68L824.24 900.96L809.29 906.45L792.56 911.16L773.66 915.11L751.94 918.33L726.28 920.81L694.46 922.59L650.4 923.65L512 924L373.6 923.65L329.54 922.59L297.72 920.81L272.06 918.33L250.34 915.11L231.44 911.16L214.71 906.45L199.76 900.96L186.32 894.68L174.19 887.56L163.23 879.58L153.33 870.67L144.42 860.77L136.44 849.81L129.32 837.68L123.04 824.24L117.55 809.29L112.84 792.56L108.89 773.66L105.67 751.94L103.19 726.28L101.41 694.46L100.35 650.4L100 512L100.35 373.6L101.41 329.54L103.19 297.72L105.67 272.06L108.89 250.34L112.84 231.44L117.55 214.71L123.04 199.76L129.32 186.32L136.44 174.19L144.42 163.23L153.33 153.33L163.23 144.42L174.19 136.44L186.32 129.32L199.76 123.04L214.71 117.55L231.44 112.84L250.34 108.89L272.06 105.67L297.72 103.19L329.54 101.41L373.6 100.35L512 100L650.4 100.35L694.46 101.41L726.28 103.19L751.94 105.67L773.66 108.89L792.56 112.84L809.29 117.55L824.24 123.04L837.68 129.32L849.81 136.44L860.77 144.42L870.67 153.33L879.58 163.23L887.56 174.19L894.68 186.32L900.96 199.76L906.45 214.71L911.16 231.44L915.11 250.34L918.33 272.06L920.81 297.72L922.59 329.54L923.65 373.6Z" fill="#000" filter="url(#s)"/><path d="M924 512L923.65 650.4L922.59 694.46L920.81 726.28L918.33 751.94L915.11 773.66L911.16 792.56L906.45 809.29L900.96 824.24L894.68 837.68L887.56 849.81L879.58 860.77L870.67 870.67L860.77 879.58L849.81 887.56L837.68 894.68L824.24 900.96L809.29 906.45L792.56 911.16L773.66 915.11L751.94 918.33L726.28 920.81L694.46 922.59L650.4 923.65L512 924L373.6 923.65L329.54 922.59L297.72 920.81L272.06 918.33L250.34 915.11L231.44 911.16L214.71 906.45L199.76 900.96L186.32 894.68L174.19 887.56L163.23 879.58L153.33 870.67L144.42 860.77L136.44 849.81L129.32 837.68L123.04 824.24L117.55 809.29L112.84 792.56L108.89 773.66L105.67 751.94L103.19 726.28L101.41 694.46L100.35 650.4L100 512L100.35 373.6L101.41 329.54L103.19 297.72L105.67 272.06L108.89 250.34L112.84 231.44L117.55 214.71L123.04 199.76L129.32 186.32L136.44 174.19L144.42 163.23L153.33 153.33L163.23 144.42L174.19 136.44L186.32 129.32L199.76 123.04L214.71 117.55L231.44 112.84L250.34 108.89L272.06 105.67L297.72 103.19L329.54 101.41L373.6 100.35L512 100L650.4 100.35L694.46 101.41L726.28 103.19L751.94 105.67L773.66 108.89L792.56 112.84L809.29 117.55L824.24 123.04L837.68 129.32L849.81 136.44L860.77 144.42L870.67 153.33L879.58 163.23L887.56 174.19L894.68 186.32L900.96 199.76L906.45 214.71L911.16 231.44L915.11 250.34L918.33 272.06L920.81 297.72L922.59 329.54L923.65 373.6Z" fill="url(#p)"/><g clip-path="url(#pc)"><path d="M924 512L923.65 650.4L922.59 694.46L920.81 726.28L918.33 751.94L915.11 773.66L911.16 792.56L906.45 809.29L900.96 824.24L894.68 837.68L887.56 849.81L879.58 860.77L870.67 870.67L860.77 879.58L849.81 887.56L837.68 894.68L824.24 900.96L809.29 906.45L792.56 911.16L773.66 915.11L751.94 918.33L726.28 920.81L694.46 922.59L650.4 923.65L512 924L373.6 923.65L329.54 922.59L297.72 920.81L272.06 918.33L250.34 915.11L231.44 911.16L214.71 906.45L199.76 900.96L186.32 894.68L174.19 887.56L163.23 879.58L153.33 870.67L144.42 860.77L136.44 849.81L129.32 837.68L123.04 824.24L117.55 809.29L112.84 792.56L108.89 773.66L105.67 751.94L103.19 726.28L101.41 694.46L100.35 650.4L100 512L100.35 373.6L101.41 329.54L103.19 297.72L105.67 272.06L108.89 250.34L112.84 231.44L117.55 214.71L123.04 199.76L129.32 186.32L136.44 174.19L144.42 163.23L153.33 153.33L163.23 144.42L174.19 136.44L186.32 129.32L199.76 123.04L214.71 117.55L231.44 112.84L250.34 108.89L272.06 105.67L297.72 103.19L329.54 101.41L373.6 100.35L512 100L650.4 100.35L694.46 101.41L726.28 103.19L751.94 105.67L773.66 108.89L792.56 112.84L809.29 117.55L824.24 123.04L837.68 129.32L849.81 136.44L860.77 144.42L870.67 153.33L879.58 163.23L887.56 174.19L894.68 186.32L900.96 199.76L906.45 214.71L911.16 231.44L915.11 250.34L918.33 272.06L920.81 297.72L922.59 329.54L923.65 373.6Z" fill="none" stroke="#fff" stroke-opacity="0.1" stroke-width="4"/></g><g transform="translate(204.37 204.37) scale(19.2267)"><g mask="url(#mi)"><path d="M4.5 4L14.1 4L16 7.4L17.9 4L27.5 4L20.8 16L27.5 28L17.9 28L16 24.6L14.1 28L4.5 28L11.2 16z" fill="#bd93f9" opacity="0.62" filter="url(#bi)"/></g><path fill="none" stroke="#ff79c6" stroke-width="1.1" stroke-linejoin="miter" d="M5.44 4.55L13.78 4.55L16 8.53L18.22 4.55L26.56 4.55L20.17 16L26.56 27.45L18.22 27.45L16 23.47L13.78 27.45L5.44 27.45L11.83 16z"/><path fill="none" stroke="#bd93f9" stroke-width="0.9" stroke-linejoin="miter" d="M8.5 6.35L12.72 6.35L16 12.22L19.28 6.35L23.5 6.35L18.11 16L23.5 25.65L19.28 25.65L16 19.78L12.72 25.65L8.5 25.65L13.89 16z"/><path fill="#8be9fd" d="M10.38 7.45L12.07 7.45L16 14.48L19.93 7.45L21.62 7.45L16.85 16L21.62 24.55L19.93 24.55L16 17.52L12.07 24.55L10.38 24.55L15.15 16z"/></g></svg>
